<svg width="30" height="30" viewBox="0 0 30 30" fill="none" xmlns="http://www.w3.org/2000/svg">
<mask id="mask0_117_257" style="mask-type:alpha" maskUnits="userSpaceOnUse" x="0" y="0" width="30" height="30">
<rect width="29.0422" height="29.0422" transform="matrix(-4.37114e-08 1 1 4.37114e-08 0 0.638672)" fill="#D9D9D9"/>
</mask>
<g mask="url(#mask0_117_257)">
<path d="M20.5717 10.3194L13.3111 3.05884L6.05054 10.3194L7.74467 12.0438L13.3111 6.47735L18.8775 12.0438L20.5717 10.3194ZM22.9918 24.8405L18.1515 24.8405C17.1431 24.8405 16.2859 24.4876 15.58 23.7817C14.8741 23.0758 14.5212 22.2186 14.5212 21.2102L14.5212 13.7379L18.8775 18.0942L20.5717 16.3699L13.3111 9.1093L6.05054 16.3699L7.74467 18.0942L12.101 13.7379L12.101 21.2102C12.101 22.8842 12.6909 24.3111 13.8708 25.4909C15.0506 26.6708 16.4775 27.2607 18.1515 27.2607L22.9918 27.2607L22.9918 24.8405Z" fill="white"/>
</g>
</svg>
