<svg width="269" height="69" viewBox="0 0 269 69" fill="none" xmlns="http://www.w3.org/2000/svg">
<g clip-path="url(#clip0_53_5)">
<path d="M67.4024 24.8903C67.1281 26.0244 58.9886 25.534 51.3978 26.3309C50.7881 26.0857 50.1479 25.8712 49.4467 25.6872C41.5206 23.3883 29.5705 25.442 21.2786 29.7947C27.5585 25.0742 37.3442 19.6486 46.3068 19.4034C61.5493 19.0355 67.7683 23.3269 67.4024 24.8903Z" fill="white"/>
<path d="M51.3978 30.0093C51.3978 30.0093 41.6426 24.9209 30.3631 34.3314C19.0836 43.7419 15.9437 56.6775 18.291 58.2408C20.6384 59.8041 23.3515 48.4318 33.8994 40.6153C40.1488 35.956 49.1114 32.1244 53.7756 38.7148C58.8056 42.0866 51.3978 30.0093 51.3978 30.0093Z" fill="white"/>
<path d="M58.0435 56.279C58.0435 56.279 60.2994 29.3656 35.2102 31.0515C32.4666 31.2661 28.6559 32.952 24.8758 34.6379C19.4495 37.0902 15.334 37.3967 14.7853 36.6917C14.2975 36.048 16.9802 33.1053 21.309 29.8254C29.5705 25.4727 41.5206 23.3883 49.4467 25.7179C50.1174 25.9018 50.7576 26.1164 51.3978 26.3616C57.6472 28.7219 61.2749 32.9827 62.3114 39.052C64.3234 50.4549 59.9946 57.8423 58.0435 56.279Z" fill="white"/>
<path d="M46.3373 16.6752C49.9908 16.6752 52.9525 13.6972 52.9525 10.0235C52.9525 6.3499 49.9908 3.37183 46.3373 3.37183C42.6838 3.37183 39.722 6.3499 39.722 10.0235C39.722 13.6972 42.6838 16.6752 46.3373 16.6752Z" fill="white"/>
<path d="M3.01802 63.0227C3.01802 63.0227 34.6615 75.4678 65.6343 64.4021C82.8279 58.2715 85.4191 52.9072 80.7244 54.0107C61.5493 58.6086 31.1557 63.2986 13.9012 60.6011C-4.23742 57.7504 -0.731643 60.7544 3.01802 63.0227Z" fill="white"/>
<path d="M106.576 8.9507C107.673 9.37984 108.71 9.9316 109.624 10.6673L108.71 11.924C107.887 11.311 107.002 10.7899 106.057 10.422C105.143 10.1155 104.167 9.96225 103.192 9.96225C101.729 9.96225 100.54 10.2994 99.6556 10.9738C98.7715 11.6175 98.2533 12.6597 98.3142 13.7632C98.2533 14.7441 98.7105 15.6637 99.4727 16.2461C100.235 16.8285 101.607 17.3803 103.588 17.932C105.996 18.5758 107.673 19.3421 108.71 20.231C109.746 21.12 110.234 22.438 110.234 24.1853C110.295 25.8712 109.533 27.4958 108.191 28.538C106.82 29.6109 105.082 30.1626 102.978 30.1626C101.576 30.1933 100.204 29.948 98.9239 29.4576C97.735 28.9671 96.668 28.2928 95.6925 27.4651L96.729 26.2697C97.5826 26.9747 98.5581 27.5571 99.5946 27.9862C100.662 28.3847 101.82 28.5686 102.948 28.538C104.533 28.538 105.844 28.1702 106.85 27.4038C107.826 26.6375 108.405 25.442 108.344 24.2159C108.374 23.4496 108.222 22.6833 107.856 22.0089C107.46 21.3652 106.881 20.8747 106.179 20.5989C105.051 20.0778 103.893 19.6793 102.704 19.3727C100.479 18.7903 98.863 18.0547 97.9179 17.1964C96.9424 16.3074 96.4242 15.0507 96.4851 13.7632C96.4546 12.2306 97.1863 10.7899 98.4057 9.90094C99.6861 8.88939 101.302 8.39894 103.222 8.39894C104.32 8.36829 105.478 8.55221 106.576 8.9507Z" fill="white"/>
<path d="M126.97 29.7028H125.415L125.293 25.8099C123.678 28.6913 121.361 30.132 118.404 30.132C116.514 30.132 115.051 29.5802 114.045 28.4767C113.008 27.3732 112.52 25.7792 112.52 23.7255V8.76678H114.349V23.5722C114.349 25.2888 114.715 26.5456 115.477 27.3425C116.239 28.1395 117.337 28.538 118.8 28.538C121.361 28.538 123.495 27.036 125.172 24.032V8.76678H127.001L126.97 29.7028Z" fill="white"/>
<path d="M140.14 8.6135L139.774 10.3301C139.164 10.1462 138.555 10.0848 137.945 10.0848C136.603 10.0542 135.293 10.6366 134.409 11.6788C133.524 12.721 132.793 14.3763 132.183 16.6139V29.7028H130.354V8.76677H131.939L132.061 13.6099C132.61 11.8321 133.372 10.4833 134.348 9.62505C135.384 8.73611 136.695 8.30697 138.036 8.33762C138.798 8.36828 139.5 8.42958 140.14 8.6135Z" fill="white"/>
<path d="M147.09 5.24167V8.76677H152.761L152.486 10.3301H147.121V29.7028H145.292V10.3607H141.725V8.79742H145.261V5.18036C145.261 3.58641 145.749 2.29898 146.755 1.37939C147.761 0.459796 149.102 0 150.809 0C152.456 0 154.102 0.39849 155.596 1.13416L154.925 2.5442C153.675 1.96179 152.303 1.65526 150.901 1.62461C148.34 1.59396 147.09 2.82008 147.09 5.24167Z" fill="white"/>
<path d="M170.93 11.1577C172.24 13.0275 172.911 15.6637 172.911 19.1275C172.911 22.5913 172.24 25.2888 170.869 27.2199C169.497 29.1817 167.576 30.1626 165.107 30.1626C163.888 30.1932 162.668 29.8867 161.601 29.2737C160.565 28.6912 159.681 27.8943 158.979 26.944L158.766 29.7028H157.181V0.245224L159.01 0V11.8014C160.717 9.5331 162.851 8.39893 165.412 8.39893C167.759 8.36828 169.619 9.31853 170.93 11.1577ZM169.375 26.147C170.442 24.5531 170.96 22.1928 170.96 19.1275C170.96 16.0622 170.472 13.7632 169.466 12.2306C168.46 10.6979 167.028 9.93159 165.107 9.93159C163.918 9.90093 162.76 10.2381 161.754 10.8818C160.687 11.6175 159.742 12.5677 159.01 13.6406V25.1048C159.681 26.1164 160.534 26.9747 161.571 27.6184C162.546 28.2315 163.674 28.538 164.833 28.538C166.662 28.6299 168.399 27.7104 169.375 26.147Z" fill="white"/>
<path d="M189.922 11.219C191.446 13.0889 192.208 15.7557 192.208 19.1888C192.208 22.622 191.446 25.3194 189.891 27.2506C188.337 29.2124 186.233 30.1626 183.55 30.1626C180.868 30.1626 178.764 29.1817 177.24 27.2506C175.716 25.3194 174.954 22.6526 174.954 19.2808C174.954 15.9089 175.746 13.2421 177.301 11.2803C178.856 9.34918 180.959 8.36829 183.611 8.36829C186.294 8.36829 188.398 9.31853 189.922 11.219ZM178.642 12.3838C177.453 13.9778 176.844 16.2768 176.844 19.3114C176.844 22.2848 177.423 24.5531 178.612 26.1777C179.77 27.7717 181.416 28.5686 183.55 28.5686C185.654 28.5686 187.3 27.7717 188.489 26.1777C189.678 24.5837 190.288 22.2541 190.288 19.1888C190.288 16.1848 189.708 13.9165 188.519 12.3532C187.331 10.7899 185.684 9.9929 183.581 9.9929C181.477 9.9929 179.831 10.7899 178.642 12.3838Z" fill="white"/>
<path d="M209.158 27.7103C209.463 28.2314 209.92 28.6299 210.499 28.8445L210.042 30.1626C209.249 29.9787 208.518 29.5802 207.999 28.9671C207.542 28.4154 207.237 27.5877 207.146 26.4842C205.622 28.9365 203.427 30.1626 200.561 30.1626C198.58 30.1626 197.025 29.6108 195.897 28.446C194.769 27.3119 194.19 25.8099 194.19 23.9094C194.19 21.7637 194.952 20.1084 196.476 18.9436C198 17.7788 200.043 17.1963 202.665 17.1963H206.932V14.9893C206.932 13.2421 206.536 11.9853 205.774 11.1884C205.012 10.3914 203.732 9.99288 201.933 9.99288C200.256 9.99288 198.366 10.422 196.263 11.2497L195.744 9.74766C198.061 8.82807 200.165 8.39893 202.085 8.39893C204.372 8.39893 206.048 8.95068 207.115 10.0542C208.182 11.1577 208.731 12.7517 208.731 14.8974V25.1968C208.762 26.3616 208.883 27.1892 209.158 27.7103ZM206.902 24.6144V18.637H202.908C200.714 18.637 199.067 19.0662 197.878 19.9245C196.72 20.7828 196.11 22.1008 196.11 23.8481C196.11 25.3501 196.507 26.5149 197.33 27.3425C198.153 28.1701 199.281 28.5993 200.744 28.5993C203.457 28.5993 205.5 27.2505 206.902 24.6144Z" fill="white"/>
<path d="M223.486 8.6135L223.12 10.3301C222.51 10.1462 221.901 10.0848 221.291 10.0848C219.919 10.0235 218.639 10.6366 217.755 11.6788C216.871 12.721 216.139 14.3763 215.56 16.6446V29.7334H213.731V8.76677H215.316L215.438 13.6099C215.986 11.8321 216.749 10.4833 217.724 9.62505C218.761 8.73611 220.071 8.30697 221.413 8.33762C222.114 8.36828 222.815 8.42958 223.486 8.6135Z" fill="white"/>
<path d="M240.283 0.245224V29.7028H238.698L238.484 26.4229C237.875 27.5264 236.991 28.446 235.954 29.1204C234.796 29.8254 233.454 30.1932 232.113 30.1319C229.857 30.1932 227.723 29.0897 226.473 27.2199C225.071 25.3194 224.37 22.6833 224.37 19.3114C224.339 17.3496 224.675 15.4185 225.345 13.61C225.894 12.0773 226.87 10.7592 228.15 9.74767C229.4 8.82808 230.924 8.33763 232.509 8.36828C234.857 8.30697 237.052 9.41049 238.454 11.311V0L240.283 0.245224ZM235.893 27.4958C236.96 26.6375 237.844 25.5953 238.454 24.3692V13.2728C236.96 11.0657 235.07 9.96224 232.753 9.96224C230.894 9.93159 229.126 10.8512 228.059 12.4145C226.87 14.0391 226.29 16.3074 226.29 19.2195C226.29 22.1928 226.839 24.4918 227.906 26.1164C228.973 27.741 230.467 28.5686 232.357 28.5686C233.607 28.5993 234.857 28.2315 235.893 27.4958Z" fill="white"/>
<path d="M115.386 38.8987C116.727 40.8912 117.367 43.6806 117.367 47.267C117.398 49.2901 117.063 51.2826 116.331 53.1524C115.721 54.777 114.715 56.187 113.374 57.2292C112.093 58.2101 110.539 58.7312 108.923 58.7006C106.82 58.7006 105.143 57.9649 103.863 56.5242V66.2106L96.7595 66.9463V36.5997H103.039L103.344 38.8374C104.076 37.8565 105.051 37.0902 106.149 36.5691C107.155 36.1093 108.252 35.8641 109.35 35.8641C112.033 35.9254 114.014 36.9063 115.386 38.8987ZM110.02 47.359C110.02 44.9374 109.777 43.2821 109.289 42.4238C108.862 41.5962 108.008 41.0751 107.063 41.1364C105.783 41.1364 104.716 41.8721 103.832 43.3741V51.9569C104.167 52.478 104.594 52.9072 105.082 53.2444C105.539 53.5202 106.057 53.6428 106.606 53.6428C108.862 53.6122 109.99 51.5278 110.02 47.359Z" fill="white"/>
<path d="M137.305 53.1524C137.548 53.5509 137.914 53.8574 138.372 54.0107L136.939 58.6086C135.78 58.5473 134.652 58.2714 133.616 57.7503C132.701 57.2599 131.97 56.4936 131.512 55.574C130.171 57.6584 128.007 58.7006 125.08 58.7006C122.977 58.7006 121.3 58.0875 120.05 56.8308C118.8 55.574 118.16 53.98 118.16 51.9876C118.16 49.6273 119.014 47.8188 120.751 46.562C122.489 45.3052 124.989 44.6615 128.251 44.6922H130.08V43.9565C130.08 42.8223 129.836 42.0253 129.348 41.5962C128.86 41.167 128.007 40.9831 126.757 40.9831C125.934 41.0138 125.08 41.1057 124.257 41.2897C123.221 41.5042 122.215 41.7801 121.209 42.1173L119.654 37.5193C120.965 36.9676 122.367 36.5691 123.769 36.2932C125.111 36.0173 126.482 35.8947 127.854 35.8641C131.055 35.8641 133.372 36.5078 134.835 37.7646C136.299 39.0213 137.03 40.9831 137.03 43.5886V51.3745C136.969 52.0182 137.091 52.6006 137.305 53.1524ZM128.86 53.2443C129.348 52.9378 129.775 52.5087 130.08 51.9876V48.5238H128.891C127.61 48.5238 126.665 48.769 126.056 49.2288C125.446 49.6886 125.141 50.3936 125.141 51.3439C125.111 51.9569 125.293 52.57 125.69 53.0604C126.086 53.4896 126.665 53.7348 127.245 53.7041C127.824 53.7348 128.372 53.5509 128.86 53.2443Z" fill="white"/>
<path d="M152.608 57.9956C151.724 60.8463 150.261 63.0533 148.188 64.5553C146.115 66.0573 143.402 66.8849 140.018 67.0075L139.256 62.0724C141.268 61.8578 142.792 61.4593 143.767 60.8463C144.834 60.1719 145.627 59.1604 146.084 57.9649H143.646L137.427 36.5997H144.956L148.188 53.5202L151.907 36.5997H159.193L152.608 57.9956Z" fill="white"/>
<path d="M188.977 37.6113C189.983 38.7454 190.501 40.3087 190.501 42.3318V57.9955H183.398V43.5886C183.398 41.9334 182.91 41.1057 181.965 41.1057C181.02 41.1057 180.106 41.9334 179.252 43.558V57.9955H172.149V43.5886C172.149 41.9334 171.661 41.1057 170.716 41.1057C169.771 41.1057 168.857 41.9334 168.003 43.558V57.9955H160.9V36.6304H167.089L167.607 38.9907C168.338 38.0098 169.283 37.2434 170.35 36.661C171.417 36.1399 172.606 35.864 173.765 35.8947C174.801 35.864 175.838 36.1706 176.722 36.7223C177.606 37.3047 178.277 38.1324 178.642 39.1133C179.404 38.1017 180.38 37.2741 181.477 36.6917C182.575 36.1399 183.764 35.8947 184.983 35.8947C186.477 35.864 187.94 36.4771 188.977 37.6113Z" fill="white"/>
<path d="M212.237 49.3821H199.25C199.433 51.0067 199.89 52.1408 200.622 52.7232C201.354 53.3056 202.39 53.6122 203.762 53.6122C204.585 53.6122 205.378 53.4589 206.14 53.1524C207.054 52.7845 207.908 52.2941 208.701 51.7423L211.597 55.6659C210.438 56.6162 209.158 57.3825 207.756 57.9036C206.262 58.4554 204.677 58.7312 203.091 58.7312C199.464 58.7312 196.72 57.7197 194.86 55.6659C193.001 53.6122 192.056 50.8841 192.056 47.4203C192.025 45.3972 192.422 43.4047 193.245 41.5655C193.976 39.8796 195.196 38.4389 196.75 37.4274C198.305 36.4158 200.165 35.8947 202.329 35.8947C205.439 35.8947 207.908 36.8756 209.707 38.8068C211.505 40.7379 212.42 43.466 212.42 46.9605C212.359 47.1444 212.328 47.9414 212.237 49.3821ZM205.378 44.968C205.347 43.558 205.103 42.4545 204.677 41.6881C204.219 40.9218 203.457 40.5233 202.39 40.5233C201.506 40.462 200.683 40.8605 200.165 41.5655C199.647 42.2705 199.342 43.466 199.22 45.2132H205.408V44.968H205.378Z" fill="white"/>
<path d="M231.046 37.6113C232.083 38.7455 232.601 40.3088 232.601 42.3319V57.9956H225.498V43.5886C225.498 42.6384 225.376 41.9947 225.102 41.6268C224.827 41.259 224.37 41.0444 223.913 41.0751C222.785 41.0751 221.748 41.9027 220.712 43.5273V57.9649H213.609V36.5997H219.797L220.315 38.9907C221.138 38.0098 222.175 37.2128 223.303 36.6304C224.4 36.1093 225.559 35.8641 226.778 35.8641C228.577 35.9254 230.01 36.4771 231.046 37.6113Z" fill="white"/>
<path d="M250.648 56.9534C249.764 57.5664 248.819 57.9956 247.782 58.2714C246.746 58.5473 245.679 58.7006 244.581 58.7006C239.673 58.7006 237.204 55.9725 237.204 50.5162V41.5042H234.46V36.5997H237.204V32.0937L244.307 31.2661V36.6304H249.124L248.423 41.5349H244.307V50.4856C244.307 51.4358 244.46 52.1408 244.764 52.5393C245.1 52.9685 245.618 53.183 246.136 53.1524C246.898 53.1524 247.63 52.9378 248.301 52.5393L250.648 56.9534Z" fill="white"/>
<path d="M264.641 36.6304C265.951 37.0595 267.14 37.7339 268.207 38.5922L265.647 42.5158C264.122 41.5042 262.324 40.9524 260.495 40.9218C259.915 40.8911 259.336 41.0138 258.848 41.259C258.513 41.4429 258.3 41.8107 258.3 42.2092C258.3 42.5158 258.391 42.8223 258.574 43.0675C258.909 43.374 259.306 43.6193 259.763 43.7725C260.373 44.0178 261.318 44.3549 262.598 44.7534C264.763 45.3971 266.378 46.2248 267.415 47.267C268.451 48.3092 268.97 49.7499 268.97 51.5891C269 52.9684 268.543 54.2865 267.72 55.39C266.805 56.5242 265.616 57.3825 264.244 57.9036C262.659 58.5166 260.952 58.8232 259.245 58.7925C257.507 58.7925 255.8 58.5166 254.154 57.9342C252.66 57.4131 251.319 56.6162 250.16 55.5433L253.544 51.7423C254.337 52.386 255.251 52.9071 256.196 53.275C257.111 53.6428 258.056 53.8267 259.031 53.8267C259.702 53.8574 260.403 53.7348 261.013 53.3976C261.47 53.1524 261.745 52.6619 261.714 52.1408C261.745 51.773 261.623 51.4358 261.409 51.1293C261.104 50.8227 260.708 50.5775 260.281 50.4242C259.733 50.2097 258.757 49.8725 257.416 49.474C253.3 48.2479 251.227 45.9795 251.227 42.6997C251.227 41.4736 251.593 40.2781 252.325 39.2665C253.117 38.163 254.184 37.3354 255.404 36.8143C256.928 36.2012 258.574 35.8947 260.22 35.9254C261.714 35.8947 263.208 36.1399 264.641 36.6304Z" fill="white"/>
</g>
<defs>
<clipPath id="clip0_53_5">
<rect width="269" height="69" fill="white"/>
</clipPath>
</defs>
</svg>
