<svg width="24" height="22" viewBox="0 0 24 22" fill="none" xmlns="http://www.w3.org/2000/svg">
<path d="M8.30325 17.7144C8.30325 17.8054 8.19862 17.8781 8.0667 17.8781C7.91658 17.8918 7.81195 17.819 7.81195 17.7144C7.81195 17.6234 7.91658 17.5506 8.0485 17.5506C8.18498 17.537 8.30325 17.6097 8.30325 17.7144ZM6.88847 17.5097C6.85663 17.6006 6.94761 17.7053 7.08408 17.7326C7.20236 17.7781 7.33884 17.7326 7.36613 17.6416C7.39343 17.5506 7.30699 17.446 7.17052 17.405C7.05224 17.3732 6.92032 17.4187 6.88847 17.5097ZM8.89919 17.4323C8.76727 17.4642 8.67628 17.5506 8.68993 17.6552C8.70358 17.7462 8.82186 17.8054 8.95833 17.7735C9.09026 17.7417 9.18124 17.6552 9.16759 17.5642C9.15394 17.4778 9.03112 17.4187 8.89919 17.4323ZM11.8925 0C5.58287 0 0.756226 4.79025 0.756226 11.0999C0.756226 16.1449 3.93153 20.4621 8.46702 21.9815C9.04931 22.0861 9.25403 21.7267 9.25403 21.431C9.25403 21.149 9.24038 19.5932 9.24038 18.6378C9.24038 18.6378 6.05598 19.3202 5.38725 17.2822C5.38725 17.2822 4.86865 15.9584 4.12259 15.6172C4.12259 15.6172 3.08084 14.903 4.19538 14.9166C4.19538 14.9166 5.32812 15.0076 5.95135 16.0903C6.94761 17.8463 8.61715 17.3413 9.26767 17.0411C9.3723 16.3132 9.668 15.8083 9.99554 15.508C7.45257 15.226 4.88685 14.8575 4.88685 10.4812C4.88685 9.23021 5.23258 8.60243 5.96045 7.80178C5.84217 7.50609 5.45549 6.28692 6.07872 4.71291C7.02949 4.41722 9.21763 5.94118 9.21763 5.94118C10.1275 5.68643 11.1055 5.55451 12.0745 5.55451C13.0435 5.55451 14.0215 5.68643 14.9314 5.94118C14.9314 5.94118 17.1195 4.41267 18.0703 4.71291C18.6935 6.29147 18.3068 7.50609 18.1885 7.80178C18.9164 8.60698 19.3622 9.23476 19.3622 10.4812C19.3622 14.8712 16.6828 15.2214 14.1398 15.508C14.5583 15.8674 14.9132 16.5498 14.9132 17.6188C14.9132 19.1519 14.8995 21.0489 14.8995 21.4219C14.8995 21.7176 15.1088 22.077 15.6865 21.9724C20.2357 20.4621 23.32 16.1449 23.32 11.0999C23.32 4.79025 18.2022 0 11.8925 0ZM5.17799 15.69C5.11885 15.7355 5.1325 15.8401 5.20984 15.9266C5.28262 15.9993 5.38725 16.0312 5.44639 15.972C5.50553 15.9266 5.49188 15.8219 5.41455 15.7355C5.34176 15.6627 5.23713 15.6309 5.17799 15.69ZM4.68669 15.3215C4.65484 15.3807 4.70033 15.4534 4.79132 15.4989C4.8641 15.5444 4.95509 15.5308 4.98693 15.4671C5.01877 15.408 4.97328 15.3352 4.8823 15.2897C4.79132 15.2624 4.71853 15.276 4.68669 15.3215ZM6.16061 16.941C6.08782 17.0002 6.11512 17.1366 6.21975 17.2231C6.32438 17.3277 6.4563 17.3413 6.51544 17.2686C6.57458 17.2094 6.54729 17.0729 6.4563 16.9865C6.35622 16.8819 6.21975 16.8682 6.16061 16.941ZM5.64201 16.2723C5.56922 16.3178 5.56922 16.4361 5.64201 16.5407C5.71479 16.6453 5.83762 16.6908 5.89676 16.6453C5.96954 16.5862 5.96954 16.4679 5.89676 16.3633C5.83307 16.2586 5.71479 16.2132 5.64201 16.2723Z" fill="black"/>
</svg>
