<svg width="24" height="25" viewBox="0 0 24 25" fill="none" xmlns="http://www.w3.org/2000/svg">
<path d="M12.0027 6.11454C8.59744 6.11454 5.85075 8.86115 5.85075 12.2663C5.85075 15.6715 8.59744 18.4181 12.0027 18.4181C15.4079 18.4181 18.1546 15.6715 18.1546 12.2663C18.1546 8.86115 15.4079 6.11454 12.0027 6.11454ZM12.0027 16.2658C9.80212 16.2658 8.00312 14.4722 8.00312 12.2663C8.00312 10.0605 9.79677 8.26686 12.0027 8.26686C14.2086 8.26686 16.0022 10.0605 16.0022 12.2663C16.0022 14.4722 14.2032 16.2658 12.0027 16.2658ZM19.8412 5.8629C19.8412 6.66065 19.1987 7.29778 18.4062 7.29778C17.6085 7.29778 16.9713 6.6553 16.9713 5.8629C16.9713 5.07051 17.6138 4.42802 18.4062 4.42802C19.1987 4.42802 19.8412 5.07051 19.8412 5.8629ZM23.9157 7.3192C23.8247 5.3971 23.3856 3.69452 21.9775 2.29177C20.5747 0.889015 18.8721 0.449985 16.9499 0.353613C14.9689 0.241178 9.03112 0.241178 7.05008 0.353613C5.1333 0.444631 3.43068 0.883661 2.02253 2.28641C0.614389 3.68917 0.180703 5.39175 0.0843279 7.31384C-0.0281093 9.29483 -0.0281093 15.2324 0.0843279 17.2134C0.175349 19.1355 0.614389 20.8381 2.02253 22.2409C3.43068 23.6436 5.12794 24.0826 7.05008 24.179C9.03112 24.2914 14.9689 24.2914 16.9499 24.179C18.8721 24.088 20.5747 23.649 21.9775 22.2409C23.3803 20.8381 23.8193 19.1355 23.9157 17.2134C24.0281 15.2324 24.0281 9.30018 23.9157 7.3192ZM21.3564 19.339C20.9388 20.3884 20.1303 21.1968 19.0755 21.6198C17.496 22.2462 13.7481 22.1016 12.0027 22.1016C10.2572 22.1016 6.50396 22.2409 4.92984 21.6198C3.88042 21.2022 3.07195 20.3937 2.64897 19.339C2.02253 17.7595 2.16709 14.0117 2.16709 12.2663C2.16709 10.5209 2.02789 6.76773 2.64897 5.19365C3.06659 4.14426 3.87507 3.3358 4.92984 2.91284C6.50931 2.28641 10.2572 2.43097 12.0027 2.43097C13.7481 2.43097 17.5014 2.29177 19.0755 2.91284C20.1249 3.33045 20.9334 4.13891 21.3564 5.19365C21.9828 6.77309 21.8383 10.5209 21.8383 12.2663C21.8383 14.0117 21.9828 17.7649 21.3564 19.339Z" fill="white"/>
</svg>
