<svg width="26" height="27" viewBox="0 0 26 27" fill="none" xmlns="http://www.w3.org/2000/svg">
<path d="M5.81982 26.2633H0.429464V9.2205H5.81982V26.2633ZM3.12174 6.8957C1.39808 6.8957 0 5.49398 0 3.80167C1.23372e-08 2.98879 0.328897 2.2092 0.914337 1.6344C1.49978 1.05961 2.2938 0.736694 3.12174 0.736694C3.94968 0.736694 4.74371 1.05961 5.32915 1.6344C5.91459 2.2092 6.24348 2.98879 6.24348 3.80167C6.24348 5.49398 4.84482 6.8957 3.12174 6.8957ZM25.9942 26.2633H20.6154V17.967C20.6154 15.9898 20.5748 13.4541 17.8129 13.4541C15.0104 13.4541 14.5809 15.6023 14.5809 17.8245V26.2633H9.19634V9.2205H14.3662V11.5453H14.4416C15.1612 10.2063 16.9192 8.79315 19.5418 8.79315C24.9971 8.79315 26 12.3202 26 16.9015V26.2633H25.9942Z" fill="white"/>
</svg>
