<svg width="21" height="21" viewBox="0 0 21 21" fill="none" xmlns="http://www.w3.org/2000/svg">
<path d="M17.145 12.7H15.875C15.7066 12.7 15.5451 12.7669 15.426 12.886C15.3069 13.0051 15.24 13.1666 15.24 13.335V17.78H2.54V5.08H8.255C8.42341 5.08 8.58493 5.0131 8.70401 4.89401C8.8231 4.77493 8.89 4.61341 8.89 4.445V3.175C8.89 3.00659 8.8231 2.84507 8.70401 2.72599C8.58493 2.6069 8.42341 2.54 8.255 2.54H1.905C1.39976 2.54 0.915218 2.7407 0.557962 3.09796C0.200705 3.45522 0 3.93976 0 4.445L0 18.415C0 18.9202 0.200705 19.4048 0.557962 19.762C0.915218 20.1193 1.39976 20.32 1.905 20.32H15.875C16.3802 20.32 16.8648 20.1193 17.222 19.762C17.5793 19.4048 17.78 18.9202 17.78 18.415V13.335C17.78 13.1666 17.7131 13.0051 17.594 12.886C17.4749 12.7669 17.3134 12.7 17.145 12.7ZM19.3675 0H14.2875C13.4394 0 13.0155 1.0283 13.6128 1.62719L15.0308 3.04522L5.35781 12.7147C5.26901 12.8032 5.19856 12.9083 5.15048 13.0241C5.10241 13.1399 5.07766 13.264 5.07766 13.3894C5.07766 13.5147 5.10241 13.6389 5.15048 13.7546C5.19856 13.8704 5.26901 13.9756 5.35781 14.0641L6.25753 14.9622C6.34602 15.051 6.45117 15.1214 6.56695 15.1695C6.68272 15.2176 6.80685 15.2423 6.93222 15.2423C7.05758 15.2423 7.18171 15.2176 7.29749 15.1695C7.41326 15.1214 7.51841 15.051 7.6069 14.9622L17.2752 5.29114L18.6928 6.70719C19.2881 7.3025 20.32 6.88578 20.32 6.0325V0.9525C20.32 0.699881 20.2196 0.457609 20.041 0.278981C19.8624 0.100352 19.6201 0 19.3675 0Z" fill="white"/>
</svg>
