<svg width="26" height="21" viewBox="0 0 26 21" fill="none" xmlns="http://www.w3.org/2000/svg">
<path d="M23.5625 0.763336H2.4375C1.09129 0.763336 0 1.85463 0 3.20084V17.8258C0 19.172 1.09129 20.2633 2.4375 20.2633H23.5625C24.9087 20.2633 26 19.172 26 17.8258V3.20084C26 1.85463 24.9087 0.763336 23.5625 0.763336ZM23.5625 3.20084V5.27296C22.4239 6.20018 20.6087 7.64196 16.728 10.6807C15.8728 11.3534 14.1787 12.9695 13 12.9506C11.8215 12.9697 10.1268 11.3531 9.272 10.6807C5.39195 7.64242 3.57627 6.20033 2.4375 5.27296V3.20084H23.5625ZM2.4375 17.8258V8.40073C3.6011 9.32754 5.25124 10.6281 7.76638 12.5976C8.87631 13.4713 10.8201 15.4 13 15.3883C15.1692 15.4 17.0883 13.4993 18.2332 12.598C20.7483 10.6286 22.3988 9.32764 23.5625 8.40079V17.8258H2.4375Z" fill="white"/>
</svg>
