<svg width="26" height="67" viewBox="0 0 26 67" fill="none" xmlns="http://www.w3.org/2000/svg">
<g id="Group 4">
<g id="&#240;&#159;&#166;&#134; icon &#34;Angle Double Right&#34;">
<path id="Vector" d="M5.12428 50.7195L5.12629 50.7178L6.32449 49.6971C6.63701 49.4308 7.16677 49.4331 7.4713 49.6954L7.47332 49.6971L12.5842 54.0508L12.9084 54.327L13.2327 54.0508L18.3436 49.6971C18.6561 49.4308 19.1858 49.4331 19.4904 49.6953L19.4904 49.6954L19.4949 49.6992L20.7023 50.7142C20.9665 50.9401 20.9629 51.2624 20.7032 51.4813L20.7032 51.4813L20.7012 51.483L13.4908 57.6252L13.4888 57.6269C13.1778 57.8947 12.648 57.8949 12.3367 57.6297L5.12629 51.4875C4.86102 51.2616 4.86421 50.9386 5.12428 50.7195ZM20.7012 59.3891L20.7012 59.3891L20.7032 59.3908C20.9633 59.61 20.9665 59.9329 20.7012 60.1588L13.4908 66.301C13.1773 66.5681 12.6489 66.5635 12.3513 66.3045L12.3513 66.3045L12.3473 66.301L5.1369 60.1588L5.13488 60.1571C4.87482 59.938 4.87163 59.615 5.1369 59.3891L6.33509 58.3684L6.3351 58.3684L6.3371 58.3667C6.64164 58.1044 7.1714 58.1022 7.48392 58.3684L12.5948 62.7221L12.919 62.9983L13.2433 62.7221L18.3542 58.3684L18.3542 58.3684L18.3562 58.3667C18.6607 58.1044 19.1905 58.1022 19.503 58.3684L20.7012 59.3891Z" fill="#CECECE" stroke="#141414"/>
</g>
<rect id="Rectangle 25" width="26" height="44" rx="13" fill="#CECECE"/>
<rect id="Rectangle 26" x="11" y="6" width="4" height="13" rx="2" fill="#141414"/>
</g>
</svg>
