<svg width="54" height="54" viewBox="0 0 54 54" fill="none" xmlns="http://www.w3.org/2000/svg">
<path d="M27 54C41.9117 54 54 41.9117 54 27C54 12.0883 41.9117 0 27 0C12.0883 0 0 12.0883 0 27C0 41.9117 12.0883 54 27 54Z" fill="#C9C9C9"/>
<path d="M30.8426 16.875C31.8999 16.875 32.8656 17.0908 33.7398 17.5225C34.6343 17.9346 35.3359 18.5232 35.8442 19.2885C36.3727 20.0538 36.637 20.9073 36.637 21.8492C36.637 24.3412 35.4679 25.911 33.1299 26.5585V26.6762C35.7932 27.2649 37.125 28.9524 37.125 31.7387C37.125 32.7983 36.8506 33.7402 36.3015 34.5644C35.773 35.369 35.0409 35.9967 34.1057 36.448C33.1705 36.8992 32.1438 37.125 31.0256 37.125H16.875V16.875H30.8426ZM23.6148 24.7631H28.2504C28.6977 24.7631 29.0636 24.6159 29.3483 24.3216C29.6532 24.0076 29.8057 23.625 29.8057 23.1737V22.8794C29.8057 22.4477 29.6532 22.0846 29.3483 21.7903C29.0433 21.4764 28.6773 21.3194 28.2504 21.3194H23.6148V24.7631ZM23.6148 32.4157H28.7383C29.1856 32.4157 29.5516 32.2685 29.8362 31.9742C30.1412 31.6602 30.2937 31.2776 30.2937 30.8263V30.532C30.2937 30.0807 30.1412 29.7079 29.8362 29.4135C29.5516 29.0996 29.1856 28.9426 28.7383 28.9426H23.6148V32.4157Z" fill="white"/>
</svg>
