<svg width="56" height="59" viewBox="0 0 56 59" fill="none" xmlns="http://www.w3.org/2000/svg">
<g id="Group 1">
<path id="Vector" d="M12.4264 26.6394C12.4114 26.6867 12.3969 26.7333 12.3828 26.779C12.3828 26.7385 12.3977 26.6918 12.4264 26.6394C13.6669 22.7247 18.0213 13.5931 25.9449 10.5635C35.9691 6.7307 52.7743 4.63116 55.1329 0.798395C55.933 -0.501728 55.8425 -0.0744641 55.383 1.08131C53.726 5.24905 51.4216 9.20439 47.9046 11.9877C45.9314 13.5494 43.845 14.8976 42.4553 15.245C38.9174 16.1295 27.7139 19.7032 23.5863 20.8825C19.6478 22.0077 13.0251 25.5489 12.4264 26.6394Z" fill="#EBEBEB"/>
<path id="Vector_2" d="M10.9397 35.5881C13.5342 28.984 34.6243 23.2053 44.845 21.1415C43.8622 23.0088 41.425 27.215 39.5381 29.1019C37.1795 31.4605 32.1674 33.2295 24.5018 36.1778C16.8363 39.1261 16.5415 47.6761 15.657 52.6882C14.9494 56.6978 8.28628 58.4865 5.04317 58.8796C2.48799 58.9778 -1.91478 58.9385 0.915571 57.9951C3.74592 57.0516 5.23972 54.064 5.63282 52.6882C6.32076 49.7399 8.34524 42.1923 10.9397 35.5881Z" fill="#EBEBEB"/>
</g>
</svg>
