<svg width="45" height="48" viewBox="0 0 45 48" fill="none" xmlns="http://www.w3.org/2000/svg">
<path d="M22.3333 5.09595C27.0468 5.09595 30.921 6.06006 33.9562 7.98828C36.9914 9.88077 38.5447 12.7017 38.6161 16.451V17.0938H27.5288V16.8795C27.5288 15.8083 27.136 14.9156 26.3505 14.2014C25.5649 13.4873 24.3687 13.1302 22.7618 13.1302C21.1907 13.1302 19.9766 13.3623 19.1196 13.8265C18.2984 14.2907 17.8877 14.862 17.8877 15.5405C17.8877 16.5046 18.4591 17.2187 19.6017 17.6829C20.7443 18.1472 22.5833 18.6292 25.1185 19.1291C28.0823 19.7361 30.5104 20.3788 32.4029 21.0573C34.3311 21.7001 36.0094 22.7713 37.4377 24.271C38.866 25.7707 39.598 27.8061 39.6337 30.377C39.6337 34.7334 38.1519 37.965 35.1881 40.0717C32.2601 42.1784 28.3322 43.2318 23.4046 43.2318C17.6556 43.2318 13.1743 42.2677 9.96059 40.3395C6.78262 38.4113 5.1936 35.0012 5.1936 30.1092H16.388C16.388 31.9661 16.87 33.2158 17.8342 33.8585C18.7983 34.4656 20.298 34.7691 22.3333 34.7691C23.8331 34.7691 25.065 34.6084 26.0291 34.287C27.0289 33.9657 27.5288 33.3051 27.5288 32.3053C27.5288 31.4125 26.9754 30.752 25.8684 30.3235C24.7972 29.8593 23.0296 29.3772 20.5658 28.8773C17.5663 28.2346 15.0847 27.574 13.1207 26.8955C11.1568 26.1814 9.44281 25.0209 7.97881 23.414C6.51479 21.8072 5.78278 19.629 5.78278 16.8795C5.78278 12.8446 7.33607 9.88077 10.4426 7.98828C13.5849 6.06006 17.5485 5.09595 22.3333 5.09595Z" fill="#FEFEFE"/>
<path d="M43.2192 1H1V47H43.2192V1Z" stroke="white" stroke-width="2"/>
</svg>
